<?xml version="1.0" encoding="UTF-8" standalone="no"?>
<!-- Created with Inkscape (http://www.inkscape.org/) -->

<svg
   xmlns:dc="http://purl.org/dc/elements/1.1/"
   xmlns:cc="http://creativecommons.org/ns#"
   xmlns:rdf="http://www.w3.org/1999/02/22-rdf-syntax-ns#"
   xmlns:svg="http://www.w3.org/2000/svg"
   xmlns="http://www.w3.org/2000/svg"
   xmlns:xlink="http://www.w3.org/1999/xlink"
   xmlns:sodipodi="http://sodipodi.sourceforge.net/DTD/sodipodi-0.dtd"
   xmlns:inkscape="http://www.inkscape.org/namespaces/inkscape"
   width="100"
   height="100"
   id="svg3073"
   version="1.1"
   inkscape:version="0.48.2 r9819"
   sodipodi:docname="New document 1">
  <defs
     id="defs3075">
    <filter
       id="filter6279-0"
       inkscape:collect="always"
       color-interpolation-filters="sRGB">
      <feGaussianBlur
         id="feGaussianBlur6281-1"
         stdDeviation="0.8"
         inkscape:collect="always" />
    </filter>
    <linearGradient
       inkscape:collect="always"
       xlink:href="#linearGradient26098"
       id="linearGradient3810"
       gradientUnits="userSpaceOnUse"
       gradientTransform="translate(1.9999997,-2.0000022)"
       x1="48"
       y1="1052.3622"
       x2="48"
       y2="902.36218" />
    <linearGradient
       id="linearGradient26098">
      <stop
         style="stop-color:#800000;stop-opacity:1;"
         offset="0"
         id="stop26100" />
      <stop
         style="stop-color:#ff0000;stop-opacity:1;"
         offset="1"
         id="stop26102" />
    </linearGradient>
  </defs>
  <sodipodi:namedview
     id="base"
     pagecolor="#ffffff"
     bordercolor="#666666"
     borderopacity="1.0"
     inkscape:pageopacity="0.0"
     inkscape:pageshadow="2"
     inkscape:zoom="3.959798"
     inkscape:cx="44.903485"
     inkscape:cy="51.299628"
     inkscape:document-units="px"
     inkscape:current-layer="layer1"
     showgrid="false"
     inkscape:window-width="1366"
     inkscape:window-height="718"
     inkscape:window-x="0"
     inkscape:window-y="26"
     inkscape:window-maximized="1" />
  <metadata
     id="metadata3078">
    <rdf:RDF>
      <cc:Work
         rdf:about="">
        <dc:format>image/svg+xml</dc:format>
        <dc:type
           rdf:resource="http://purl.org/dc/dcmitype/StillImage" />
        <dc:title></dc:title>
      </cc:Work>
    </rdf:RDF>
  </metadata>
  <g
     inkscape:label="Layer 1"
     inkscape:groupmode="layer"
     id="layer1"
     transform="translate(0,-952.36218)">
    <rect
       ry="5"
       rx="5"
       style="fill:#000000;fill-opacity:1;stroke:none;filter:url(#filter6279-0)"
       id="rect9283-6"
       width="80"
       height="80"
       x="10"
       y="962.36218" />
    <rect
       y="962.36218"
       x="10"
       height="80"
       width="80"
       id="rect9285-1"
       style="fill:url(#linearGradient3810);fill-opacity:1;stroke:none"
       rx="5"
       ry="5" />
    <g
       id="g3891"
       transform="translate(1.9098164,954.21199)">
      <path
         transform="matrix(0.14663603,0,0,0.14663603,-9.3468387,-3.9374445)"
         inkscape:connector-curvature="0"
         id="path3919"
         d="m 306.86534,186.97 c -82.84271,0 -150,67.15728 -150,149.99999 0,82.84271 67.15729,150 150,150 41.34147,0 78.7741,-16.72884 105.90625,-43.78125 -3.47643,0.38415 -6.98368,0.59375 -10.5625,0.59375 -52.64893,0 -95.34375,-42.69482 -95.34375,-95.34375 0,-3.87763 0.23739,-7.71251 0.6875,-11.46875 l 149.3125,0 c 0,-82.84271 -67.15729,-149.99999 -150,-149.99999 z m 148.71875,169.62499 c -0.25887,1.97913 -0.53974,3.95218 -0.875,5.90625 0.33595,-1.95791 0.61574,-3.9232 0.875,-5.90625 z m -15.34375,49.09375 c -0.50335,0.97484 -1.03855,1.94401 -1.5625,2.90625 0.52526,-0.96453 1.05794,-1.92906 1.5625,-2.90625 z"
         style="fill:#ffffff;fill-opacity:1;stroke:none" />
      <path
         transform="matrix(0.14663603,0,0,0.14663603,-9.3468387,-3.9374445)"
         inkscape:connector-curvature="0"
         id="path4190"
         d="m 612.79426,381.97536 c 0.89207,27.25497 -4.35477,54.96936 -16.45346,80.86131 -8.26932,17.69686 -19.14156,33.42832 -31.95917,46.98838"
         style="fill:#000000;fill-opacity:0;stroke:#ffffff;stroke-width:27.27842522;stroke-linecap:square;stroke-linejoin:miter;stroke-miterlimit:4;stroke-opacity:1;stroke-dasharray:none" />
      <path
         transform="matrix(0.14663603,0,0,0.14663603,-9.3468387,-3.9374445)"
         inkscape:connector-curvature="0"
         id="path4182"
         d="m 552.4217,382.12259 c 0.79552,18.04087 -2.45901,36.43125 -10.22509,53.64202 -5.31736,11.78405 -12.34687,22.29098 -20.66798,31.39307"
         style="fill:#000000;fill-opacity:0;stroke:#ffffff;stroke-width:27.27842522;stroke-linecap:square;stroke-linejoin:miter;stroke-miterlimit:4;stroke-opacity:1;stroke-dasharray:none" />
      <path
         transform="matrix(0.14663603,0,0,0.14663603,-9.3468387,-3.9374445)"
         inkscape:connector-curvature="0"
         id="path4174"
         d="m 492.06653,382.2367 c 0.70321,8.84175 -0.56402,17.92306 -4.01411,26.45585 -2.37199,5.8664 -5.56832,11.14163 -9.40205,15.77395"
         style="fill:#000000;fill-opacity:0;stroke:#ffffff;stroke-width:27.27842522;stroke-linecap:square;stroke-linejoin:miter;stroke-miterlimit:4;stroke-opacity:1;stroke-dasharray:none" />
    </g>
  </g>
</svg>
